<?xml version="1.0" encoding="UTF-8" standalone="no"?><!DOCTYPE svg PUBLIC "-//W3C//DTD SVG 1.1//EN" "http://www.w3.org/Graphics/SVG/1.1/DTD/svg11.dtd"><svg fill="#FFFFFF" xmlns="http://www.w3.org/2000/svg" xmlns:xlink="http://www.w3.org/1999/xlink" viewBox="0 0 50 50" width="50px" height="50px"><g><path d="M33,41.929l-18,0.071l-0.1,-3l18.1,0l0,2.929Z" style="fill-rule:nonzero;"/><path d="M41.189,20.626l-3.329,-18.208l3.067,-0.527l3.102,18.362l-2.84,0.373Z" style="fill-rule:nonzero;"/><path d="M33,37l-18.1,-1.661l0.25,-2.986l18.051,2.147l-0.201,2.5Z" style="fill-rule:nonzero;"/><path d="M33.362,31.896l-17.731,-4.496l0.745,-3l17.267,4.802l-0.281,2.694Z" style="fill-rule:nonzero;"/><path d="M34.5,27l-15.387,-9.299l1.682,-2.67l15.106,9.549l-1.401,2.42Z" style="fill-rule:nonzero;"/><path d="M37.302,23.038l-10.201,-14.958l2.867,-1.729l9.852,15.128l-2.518,1.559Z" style="fill-rule:nonzero;"/><path d="M36,29l0,16l-24,0l0,-16l-3,0l0,18.985l29.903,0.015l0,-0.015c0.03,0 0.097,-18.985 0.097,-18.985l-3,0Z" style="fill-rule:nonzero;"/></g></svg>